<svg width="53" height="25" viewBox="0 0 53 25" fill="none" xmlns="http://www.w3.org/2000/svg">
<path d="M27.5557 0.215953L5.1168 0C-0.14926 0.827152 -1.77651 14.7869 2.25696 14.7709L17.3611 14.717L16.7563 18.8686C16.9408 21.652 19.9678 21.8154 22.8443 23.1806L25.443 8.97943H6.95075C5.73601 8.2359 5.86559 7.49239 6.95075 6.74886L25.8296 6.91083L27.5557 0.215953Z" transform="translate(0.0151367 0.863525)" fill="#399FC9"/>
<path d="M9.46894e-08 22.9647L22.4389 23.1806C27.705 22.3535 29.3322 8.39375 25.2987 8.40974L10.1946 8.46367L10.7994 4.31203C10.6149 1.52866 7.58787 1.36519 4.71139 5.61586e-09L2.11269 14.2012H20.605C21.8197 14.9447 21.6901 15.6882 20.605 16.4318L1.72607 16.2698L9.46894e-08 22.9647Z" transform="translate(24.9594 1.01611)" fill="#399FC9"/>
</svg>
