<svg width="51" height="56" viewBox="0 0 51 56" fill="none" xmlns="http://www.w3.org/2000/svg">
<path d="M4.097 42.6633C2.82942 41.2667 3.50546 38.6429 3.50546 38.6429C4.1815 35.8075 2.11112 30.5175 2.11112 30.5175C-2.66343 18.8794 2.15338 13.5048 2.15338 13.5048C2.15338 13.5048 6.25188 -0.291538 20.9981 0.00470338C35.7443 0.300944 37.1386 17.3982 37.1386 17.3982C37.1386 17.3982 39.209 23.7462 36.8006 27.9359C36.8006 27.9359 36.9174 26.7912 36.4244 25.7587C36.4244 25.7587 35.1547 29.245 35.3937 30.8011C34.7364 29.6939 34.8559 29.0654 34.8559 29.0654C34.8559 29.0654 33.6608 32.7462 34.0193 35.2599C34.0193 35.2599 32.2795 35.7228 31.9415 39.4893C31.2232 36.8655 32.1316 34.8553 32.1316 34.8553C32.5964 33.0143 32.4956 26.7612 32.4956 26.7612C31.0615 22.2127 31.3304 17.9035 31.3304 17.9035C30.7627 17.3349 30.942 16.9758 30.942 16.9758C29.8067 17.3648 28.9701 22.5418 28.9701 22.5418C27.3567 20.477 28.5518 13.0257 28.5518 13.0257C28.5518 13.0257 28.0738 17.0357 26.4604 21.0755C27.3269 18.5918 27.4762 11.2003 27.4762 11.2003C27.4762 11.2003 27.3268 11.7091 25.3251 13.8038C25.3251 13.8038 24.6379 17.5145 22.0087 20.9558C23.3831 18.5918 24.3783 14.9437 24.3783 14.9437C24.3783 14.9437 23.3642 19.9374 14.6602 23.4077C17.7869 18.8371 16.2658 16.5518 16.2658 16.5518C16.2658 16.5518 14.026 23.1019 5.93481 25.265C5.93481 25.265 5.39702 33.9432 6.59211 35.619C6.59211 35.619 6.5054 36.5692 6.5054 36.9924C5.19557 38.9391 6.08287 43.4251 6.08287 43.4251L6.46315 45.2448C6.18403 43.7087 4.19502 42.9382 4.097 42.6633Z" transform="translate(6.7733 0.833252)" fill="black"/>
<path d="M6.65261e-07 8.42798e-07C6.65261e-07 8.42798e-07 0.323081 6.28515 0.111818 7.25851C0.111818 7.25851 0.729582 9.0191 2.61184 9.88692C2.61184 9.88692 2.85086 12.4605 5.59955 15.1537" transform="translate(15.0259 40.3008)" stroke="#010000" stroke-width="0.75"/>
<path d="M14.5365 0C14.5365 0 8.36816 0.593361 8.06938 4.09457C8.06938 4.09457 6.78467 4.24419 6.30663 5.47111C6.30663 5.47111 4.60364 4.57336 2.0342 8.52343C2.0342 8.52343 0.537788 8.87124 0 9.29019" transform="translate(0.545425 42.2627)" stroke="#010000" stroke-width="0.75"/>
<path d="M2.227e-08 -1.46188e-06C1.6587 2.9159 4.82082 5.65713 7.86243 7.76254" transform="translate(13.2787 37.8257)" stroke="#010000" stroke-width="0.75"/>
<path d="M8.16509 1.40284e-06C6.97137 1.66992 4.6901 4.97679 1.51742e-06 8.21491" transform="translate(30.3441 37.3645)" stroke="#010000" stroke-width="0.75"/>
<path d="M2.44315e-06 -1.40831e-06C2.44315e-06 -1.40831e-06 5.3227 2.45244 10.204 0.0211423C5.49285 4.16849 2.44315e-06 -1.40831e-06 2.44315e-06 -1.40831e-06Z" transform="translate(20.5884 45.2739)" fill="black"/>
<path d="M-2.93876e-06 3.4495C1.16315 3.4641 1.23097 -1.9244e-07 1.23097 -1.9244e-07C1.23097 -1.9244e-07 1.18115 3.48036 2.24436 3.49395C1.77792 3.46502 1.13214 4.66559 0.570413 3.68225L-2.93876e-06 3.4495Z" transform="translate(24.7292 42.949)" fill="black"/>
<path d="M2.60099 1.40284e-06C1.91382 0.807971 0.850617 2.46171 0.850617 2.46171C0.850617 2.46171 0.569347 5.35654 0.270577 5.35654C-0.386723 6.67322 0.36021 8.43879 0.36021 8.43879C0.36021 8.43879 1.37446 5.80852 3.0177 4.31228L2.80644 2.95804" transform="translate(35.9083 37.3645)" fill="black"/>
<path d="M4.779 0.00101955C3.08151 0.014218 1.81001 0.152207 0.215849 0.195656C-0.0488071 0.539049 -0.032602 1.16392 0.066347 1.8715L0.663892 2.58965C0.942349 3.69693 0.987045 4.84317 1.50036 5.91124C2.22241 6.41892 3.24716 6.66025 5.80287 6.83885C7.71507 6.83831 9.54795 6.74911 10.7923 6.00104C11.6332 4.68882 11.9041 2.85358 12.5251 2.2904C12.939 2.11477 13.4161 2.09728 13.9892 2.32025C14.4841 3.59623 15.0202 4.88334 15.9311 6.27043C17.217 6.597 18.584 6.84839 20.2334 6.83885C22.1791 6.7545 23.9715 6.57044 24.8046 5.76174L25.5517 2.55979L26.2088 1.99115C26.4409 1.00037 26.2082 0.740963 26.1192 0.255599C20.2477 -0.25938 17.2409 0.163595 14.2281 0.584704C13.3768 0.79853 12.6395 0.670136 11.8978 0.554845C8.59995 0.0995055 6.47649 -0.0121832 4.779 0.00101614V0.00101955ZM21.3374 0.457877C23.2209 0.452987 24.7873 0.634588 24.8601 0.996201C25.2835 1.70094 25.0793 3.7521 24.3822 5.6643C23.8953 6.35455 16.7579 6.84798 16.0762 5.72424C15.0309 4.13462 14.655 2.58694 15.0008 1.4151C15.97 0.778673 18.9158 0.464162 21.3374 0.457877ZM5.01839 0.467829C7.44005 0.474117 10.386 0.788624 11.3552 1.42505C11.7011 2.59689 11.3249 4.14458 10.2796 5.7342C9.59789 6.85793 2.46071 6.3645 1.97382 5.67425C1.27675 3.76205 1.07235 1.71066 1.49574 1.00592C1.56855 0.644308 3.13488 0.462938 5.01839 0.467829Z" transform="translate(12.8161 22.4937)" fill="black"/>
<path d="M-1.05237e-06 2.07126C-1.05237e-06 2.07126 10.3942 -3.3457 8.61955 3.34087C8.61955 -0.89114 -1.05237e-06 2.07126 -1.05237e-06 2.07126Z" transform="translate(29.6954 19.7219)" fill="black" stroke="black" stroke-width="0.264583"/>
<path d="M0.266275 13.6879C-0.391021 12.3113 0.505295 6.80518 0.505295 6.80518C-0.211758 5.60819 0.0445371 4.12651 0.0445371 4.12651C0.755777 2.57614 1.34396 0.902508 2.70203 0C2.70203 0 5.36394 0.169282 6.80053 1.73512C6.80053 1.73512 8.23713 1.56585 9.08218 2.49688C9.08218 2.49688 9.67372 3.08937 10.223 3.21632C10.223 3.21632 11.1526 4.02041 11.3638 6.89817C11.3638 6.89817 11.2793 8.16777 11.9554 8.92953C11.9554 8.92953 13.5691 9.9051 14.17 10.8925" transform="translate(36.2239 41.6768)" stroke="black" stroke-width="0.75"/>
</svg>
