<svg width="39" height="45" viewBox="0 0 39 45" fill="none" xmlns="http://www.w3.org/2000/svg">
<path d="M36.0254 9.0081L22.0655 0.747561C21.24 0.261646 20.3018 2.85172e-07 19.3636 2.85172e-07C18.4255 2.85172e-07 17.4873 0.261646 16.6617 0.747561L2.7019 9.0081C1.05074 9.97993 -1.43152e-07 11.8115 -1.43152e-07 13.7925V30.3136C-1.43152e-07 32.2946 1.01321 34.0888 2.7019 35.098L16.6617 43.3585C17.4873 43.8444 18.4255 44.1061 19.3636 44.1061C20.3018 44.1061 21.24 43.8444 22.0655 43.3585L36.0254 35.098C37.6765 34.1261 38.7273 32.2946 38.7273 30.3136V13.7551C38.7273 11.8115 37.7141 9.97993 36.0254 9.0081ZM25.2178 34.7989L25.2553 35.995C25.2553 36.1445 25.1802 36.2941 25.0677 36.3688L24.3547 36.78C24.2421 36.8547 24.167 36.78 24.1295 36.6305V35.4717C23.5291 35.7334 22.9286 35.7708 22.5159 35.6213C22.4408 35.5839 22.4033 35.4717 22.4408 35.3596L22.7035 34.2756C22.741 34.2009 22.7785 34.0888 22.8161 34.0514C22.8536 34.014 22.8536 34.014 22.8911 34.014C22.9286 33.9766 22.9662 33.9766 23.0037 34.014C23.4165 34.1635 23.9794 34.0888 24.4672 33.8271C25.1427 33.4907 25.5555 32.8179 25.5555 32.1451C25.5555 31.547 25.2178 31.2854 24.4297 31.2854C23.4165 31.2854 22.4783 31.0985 22.4408 29.6034C22.4408 28.3699 23.0788 27.0991 24.092 26.3141V25.118C24.092 24.9685 24.167 24.819 24.2796 24.7443L24.9551 24.2957C25.0677 24.221 25.1427 24.2957 25.1802 24.4452V25.6413C25.6681 25.4544 26.1184 25.3797 26.5312 25.4918C26.6062 25.5292 26.6438 25.6413 26.6062 25.7535L26.3436 26.8C26.306 26.8748 26.2685 26.9496 26.231 27.0243C26.1934 27.0617 26.1934 27.0617 26.1559 27.0617C26.1184 27.0617 26.0809 27.0991 26.0433 27.0617C25.8557 27.0243 25.4429 26.9122 24.7674 27.286C24.0544 27.6597 23.7918 28.2578 23.8293 28.7063C23.8293 29.267 24.1295 29.4165 25.0677 29.4165C26.3435 29.4539 26.9064 30.0146 26.944 31.2854C26.944 32.5936 26.2685 33.9392 25.2178 34.7989ZM32.5354 32.7805C32.5354 32.8927 32.5354 33.0048 32.4228 33.0422L28.8953 35.1727C28.8203 35.2101 28.7452 35.1727 28.7452 35.0606V34.1635C28.7452 34.0514 28.8203 33.9766 28.8953 33.9392L32.3853 31.8835C32.4604 31.8461 32.5354 31.8835 32.5354 31.9956V32.7805ZM34.9746 12.4843L21.7653 20.5953C20.1142 21.5671 18.9133 22.6137 18.9133 24.5947V40.8168C18.9133 42.0129 19.4012 42.7605 20.1142 42.9847C19.889 43.0221 19.6263 43.0595 19.3636 43.0595C18.5756 43.0595 17.8251 42.8352 17.1496 42.4614L3.18975 34.2009C1.83879 33.3786 0.975687 31.8835 0.975687 30.2762V13.7551C0.975687 12.1479 1.83879 10.6154 3.18975 9.83042L17.1496 1.56988C17.8251 1.15872 18.5756 0.971828 19.3636 0.971828C20.1517 0.971828 20.9022 1.1961 21.5777 1.56988L35.5375 9.83042C36.7008 10.5032 37.4514 11.6993 37.6765 13.0076C37.2262 12.0357 36.1755 11.7741 34.9746 12.4843Z" transform="translate(0.136353 0.446899)" fill="#2A3238"/>
</svg>
